<svg xmlns="http://www.w3.org/2000/svg" version="1.0" preserveAspectRatio="xMidYMid meet" viewBox="118.13 45.1 332.87 383.99">

<g transform="translate(0.000000,500.000000) scale(0.100000,-0.100000)" fill="#000000" stroke="none">
<path d="M4311 4504 c-109 -51 -122 -60 -114 -80 9 -23 39 -16 133 31 99 50 120 54 120 26 0 -14 -35 -34 -157 -89 -87 -39 -248 -112 -358 -162 -110 -51 -247 -114 -305 -140 -457 -206 -595 -274 -603 -294 -3 -6 -19 -30 -35 -52 l-31 -42 -45 16 c-43 16 -50 16 -111 0 -75 -20 -209 -84 -279 -135 -54 -39 -110 -60 -103 -40 8 25 162 125 250 162 182 75 489 212 732 325 74 34 249 114 450 206 208 94 290 138 293 157 7 35 -29 24 -247 -79 -62 -30 -115 -54 -117 -54 -2 0 -93 -41 -201 -91 -109 -50 -245 -113 -303 -139 -58 -27 -175 -81 -260 -120 -85 -40 -206 -92 -269 -116 -203 -78 -270 -121 -412 -263 -108 -109 -127 -133 -137 -173 -8 -30 -12 -136 -12 -287 l0 -241 -159 0 -160 0 -20 -26 c-15 -19 -21 -41 -21 -80 0 -29 -4 -56 -10 -59 -18 -11 -11 -75 12 -106 l22 -30 -57 -52 c-49 -44 -62 -63 -82 -122 l-25 -70 0 -657 c0 -437 4 -674 11 -708 6 -28 26 -73 44 -100 l34 -50 -100 0 c-77 0 -99 -3 -99 -14 0 -7 6 -18 12 -24 41 -32 1700 -30 1745 3 36 27 3 35 -143 35 l-144 0 34 44 c25 33 37 62 46 113 16 97 10 1373 -8 1424 -15 45 -62 105 -108 138 -39 28 -44 58 -14 84 25 21 25 43 0 59 -24 15 -26 34 -5 42 20 7 19 30 -1 47 -11 9 -14 22 -10 41 4 20 0 34 -14 48 -19 19 -34 20 -275 20 l-255 0 0 -25 0 -25 235 0 235 0 0 -30 0 -30 -232 -2 -233 -3 -3 -22 -3 -23 241 0 241 0 -3 -22 -3 -23 -237 -3 -238 -2 0 -25 0 -25 240 0 c233 0 240 -1 240 -20 0 -19 -7 -20 -115 -20 -96 0 -117 -3 -122 -16 -12 -31 15 -38 140 -39 112 0 125 -2 156 -24 49 -35 88 -96 101 -155 7 -36 10 -264 8 -712 -3 -658 -3 -659 -25 -700 -28 -52 -73 -91 -121 -103 -79 -20 -529 -33 -747 -22 -325 17 -344 21 -391 73 -55 60 -59 77 -62 317 -2 123 -1 239 3 257 l6 34 614 0 c337 0 620 3 629 6 9 3 16 14 16 24 0 16 -18 18 -190 24 -105 4 -389 6 -633 5 l-442 -4 0 400 c0 459 1 463 82 535 25 22 51 41 57 41 6 1 16 2 21 4 6 1 16 3 23 3 23 3 9 47 -15 50 -15 2 -23 10 -23 23 0 18 8 19 113 19 120 0 154 10 141 43 -5 15 -23 17 -147 17 -110 0 -138 3 -129 12 7 7 12 33 12 59 0 82 -6 79 161 79 l149 0 2 -617 3 -618 21 -3 c20 -3 22 3 28 70 4 40 5 444 4 898 l-2 825 24 45 c34 60 108 98 209 107 50 4 75 11 78 21 3 8 1 17 -6 21 -13 9 105 79 196 115 75 31 138 42 147 27 13 -20 -83 -108 -162 -149 -103 -53 -161 -72 -261 -83 -97 -11 -121 -21 -121 -52 0 -29 80 -107 140 -138 69 -34 189 -38 273 -9 126 44 203 125 234 244 15 56 16 73 5 125 -12 57 -11 61 10 84 82 89 102 106 145 122 26 10 98 42 158 71 123 59 588 274 735 339 52 23 136 62 185 85 50 23 121 56 160 72 83 34 115 62 115 98 0 35 -38 70 -76 69 -16 0 -71 -20 -123 -45z m-1357 -900 c38 -98 -67 -264 -197 -312 -110 -42 -224 -26 -304 42 -48 40 -43 56 16 56 101 0 242 48 346 119 30 20 30 20 37 1 11 -30 56 -27 64 4 3 14 3 34 -1 45 -6 19 12 61 26 61 4 0 10 -7 13 -16z"/>
<path d="M2829 3444 c-13 -14 -45 -37 -71 -50 -49 -25 -61 -49 -32 -61 9 -3 32 2 51 12 42 23 116 102 108 115 -10 17 -31 11 -56 -16z"/>
<path d="M2407 4184 c-4 -4 -7 -27 -7 -51 0 -56 24 -54 28 2 3 37 -8 62 -21 49z"/>
<path d="M2280 4055 c0 -13 9 -16 48 -13 26 2 47 8 47 13 0 6 -21 11 -47 13 -39 3 -48 0 -48 -13z"/>
<path d="M2450 4055 c0 -11 12 -15 50 -15 38 0 50 4 50 15 0 11 -12 15 -50 15 -38 0 -50 -4 -50 -15z"/>
<path d="M2402 3968 c2 -24 8 -43 13 -43 6 0 11 19 13 43 3 33 0 42 -13 42 -13 0 -16 -9 -13 -42z"/>
<path d="M1990 3570 c0 -20 5 -30 15 -30 10 0 15 10 15 30 0 20 -5 30 -15 30 -10 0 -15 -10 -15 -30z"/>
<path d="M1925 3530 c-4 -7 -3 -16 3 -22 14 -14 57 -6 57 12 0 18 -50 26 -60 10z"/>
<path d="M2024 3525 c-9 -23 1 -28 33 -18 34 12 33 27 -2 31 -16 2 -27 -2 -31 -13z"/>
<path d="M1990 3465 c0 -25 4 -35 13 -32 6 2 12 16 12 32 0 16 -6 30 -12 33 -9 2 -13 -8 -13 -33z"/>
<path d="M2351 3216 c-9 -10 -11 -66 -9 -200 l3 -186 -38 0 c-34 0 -38 -3 -35 -22 2 -19 10 -24 41 -26 l37 -3 0 -59 c0 -76 -6 -90 -40 -90 -31 0 -47 -25 -29 -46 6 -8 22 -14 35 -14 l24 0 2 -347 3 -348 25 0 25 0 0 675 c0 609 -2 675 -16 678 -9 1 -21 -4 -28 -12z"/>
<path d="M2000 3055 c-26 -32 13 -81 48 -59 34 22 22 74 -18 74 -10 0 -23 -7 -30 -15z"/>
<path d="M2827 2424 c-18 -18 -5 -43 28 -54 55 -18 85 -62 85 -125 0 -39 4 -54 16 -59 27 -10 34 3 34 60 0 70 -19 115 -62 148 -36 27 -88 43 -101 30z"/>
<path d="M2937 1983 c-13 -12 -7 -51 9 -57 25 -10 33 -7 45 16 10 18 8 24 -7 35 -20 14 -37 17 -47 6z"/>
<path d="M2802 1633 c3 -29 32 -43 50 -25 18 18 -1 52 -28 52 -22 0 -25 -4 -22 -27z"/>
<path d="M2940 1645 c-9 -11 -10 -19 -3 -26 17 -17 48 -6 48 16 0 25 -28 31 -45 10z"/>
<path d="M2592 1641 c-23 -14 -10 -46 21 -49 31 -4 46 20 27 43 -14 17 -29 19 -48 6z"/>
<path d="M2569 1326 c-10 -20 -9 -30 5 -51 21 -32 51 -32 72 0 15 23 15 26 -3 47 -26 33 -60 35 -74 4z m61 -36 c0 -5 -5 -10 -11 -10 -5 0 -7 5 -4 10 3 6 8 10 11 10 2 0 4 -4 4 -10z"/>
<path d="M2254 1116 c-10 -26 1 -51 22 -54 27 -4 47 21 39 48 -7 24 -53 28 -61 6z"/>
<path d="M2337 964 c-4 -4 -7 -16 -7 -26 0 -17 8 -19 88 -16 79 3 87 5 87 23 0 18 -8 20 -80 23 -45 1 -84 0 -88 -4z"/>
<path d="M2090 953 c-61 -9 -70 -14 -70 -34 0 -21 3 -21 98 -14 101 7 119 13 109 39 -6 16 -70 20 -137 9z"/>
<path d="M2572 939 c3 -22 9 -24 111 -35 60 -7 131 -18 159 -24 52 -13 76 -5 65 23 -7 18 -139 47 -250 54 l-89 6 4 -24z"/>
<path d="M1184 758 c-14 -22 28 -38 102 -38 85 0 104 6 104 31 0 17 -9 19 -99 19 -65 0 -102 -4 -107 -12z"/>
</g>
</svg>