<svg xmlns="http://www.w3.org/2000/svg" version="1.0" preserveAspectRatio="xMidYMid meet" viewBox="126.3 100.08 245.7 299.92">

<g transform="translate(0.000000,500.000000) scale(0.100000,-0.100000)" fill="#000000" stroke="none">
<path d="M2051 3989 c-198 -39 -366 -160 -454 -326 -51 -97 -61 -145 -102 -493 -20 -168 -67 -555 -105 -860 -141 -1147 -134 -1078 -120 -1123 22 -74 62 -121 132 -153 l63 -29 948 -3 947 -2 0 29 c0 16 3 36 6 45 5 13 -1 16 -26 16 -42 0 -67 14 -85 50 -19 37 -19 91 0 136 15 37 62 64 112 64 l28 0 73 593 c41 325 104 837 142 1137 68 546 110 894 110 918 0 9 -169 12 -812 11 -447 -1 -833 -5 -857 -10z m1566 -111 c-8 -42 -53 -402 -67 -528 -6 -52 -39 -324 -75 -605 -35 -280 -85 -681 -110 -890 -25 -209 -48 -390 -51 -402 l-4 -23 -923 -2 -922 -3 -49 -22 -48 -23 5 33 c7 39 54 421 147 1182 38 319 79 653 90 741 25 209 56 290 149 396 65 74 205 149 314 167 28 5 389 9 801 10 l748 1 -5 -32z m-387 -2556 c0 -4 -5 -13 -11 -19 -6 -6 -14 -26 -18 -45 l-7 -33 -598 -3 c-562 -2 -597 -3 -594 -20 3 -16 42 -17 600 -20 l596 -2 4 -28 c3 -15 9 -35 13 -44 7 -17 -37 -18 -833 -18 -590 0 -857 3 -894 11 -39 9 -63 22 -90 49 -46 46 -49 78 -10 120 54 61 25 59 975 60 477 0 867 -4 867 -8z"/>
<path d="M1765 3588 c-9 -23 -22 -153 -18 -165 6 -15 13 -16 29 -5 12 7 36 160 28 174 -8 12 -34 9 -39 -4z"/>
<path d="M2503 3481 c-71 -26 -158 -85 -191 -131 -23 -33 -35 -40 -86 -50 -86 -17 -161 -56 -218 -114 -181 -184 -163 -421 39 -519 30 -15 43 -27 43 -41 0 -12 -9 -88 -21 -169 -12 -81 -19 -151 -15 -154 3 -3 25 0 49 6 l43 12 17 140 c10 77 20 146 23 154 3 7 28 16 57 20 62 9 151 40 166 59 9 11 8 23 -5 49 l-17 35 -42 -19 c-183 -81 -365 -4 -365 155 0 134 116 269 254 295 l48 9 -7 -44 c-7 -50 10 -123 31 -131 25 -9 28 4 14 61 -12 50 -11 57 12 107 83 179 318 257 444 147 66 -58 92 -150 63 -225 -13 -34 -64 -90 -101 -109 -34 -18 -37 -44 -5 -44 59 0 145 101 157 184 l5 41 50 -4 c97 -6 177 -72 189 -153 7 -48 -6 -123 -28 -167 -32 -60 -146 -147 -218 -165 -23 -5 -27 -12 -33 -58 -12 -105 -37 -273 -40 -276 -1 -1 -36 6 -76 18 -96 26 -149 27 -149 2 0 -16 15 -22 87 -36 48 -9 116 -29 151 -43 35 -14 65 -23 67 -21 2 2 15 77 29 167 14 90 26 164 28 165 2 1 38 24 81 50 213 131 264 387 104 533 -46 42 -121 73 -179 73 -24 0 -31 7 -44 40 -23 56 -109 132 -174 153 -69 22 -171 21 -237 -2z"/>
<path d="M1546 1868 c-7 -32 -36 -261 -36 -281 0 -26 39 -21 45 6 6 29 35 256 35 279 0 27 -39 23 -44 -4z"/>
<path d="M1610 1200 c0 -20 5 -20 157 -18 141 3 158 5 161 21 3 16 -10 17 -157 17 -155 0 -161 -1 -161 -20z"/>
</g>
</svg>